# xmcd CD database file
#
# Track frame offsets:
#	183
#	16798
#	29973
#	41285
#	49920
#	65245
#	83903
#	99988
#	116458
#	132970
#	154388
#	170015
#	175908
#	204193
#	219810
#
# Disc length: 3072 seconds
#
# Revision: 0
# Processed by: cddbd v1.5PL3 Copyright (c) Steve Scherf et al.
# Submitted via: CDex 1.51
#
DISCID=cb0bfe0f
DTITLE=Dizzie Gillespie Big Band - Bebop Enters Sweden 1947 - 1949
DYEAR=1998
DGENRE=Jazz
TTITLE0=Intro and Crown Pilots
TTITLE1=Begin The Beguine
TTITLE2=Shishka
TTITLE3=I Waited For You-Theme
TTITLE4=Our Delight
TTITLE5=I Can't Get Started
TTITLE6=Ool-Ya-Noo
TTITLE7=Manteca
TTITLE8=More Than You Know
TTITLE9=OO-Pop-A-Da
TTITLE10=Ray's Idea
TTITLE11=I Waited For You-Theme
TTITLE12=Indiana
TTITLE13=Anthropology
TTITLE14=Tea For Two
EXTD=YEAR: 1998
EXTT0=
EXTT1=
EXTT2=
EXTT3=
EXTT4=
EXTT5=
EXTT6=
EXTT7=
EXTT8=
EXTT9=
EXTT10=
EXTT11=
EXTT12=
EXTT13=
EXTT14=
PLAYORDER=
